<?xml version="1.0" encoding="utf-8"?>
<!-- Generator: Adobe Illustrator 23.0.3, SVG Export Plug-In . SVG Version: 6.00 Build 0)  -->
<svg version="1.2" baseProfile="tiny" id="Layer_1" xmlns="http://www.w3.org/2000/svg" xmlns:xlink="http://www.w3.org/1999/xlink"
	 x="0px" y="0px" viewBox="0 0 338 128" xml:space="preserve">
<g>
	<path fill="#0070A8" d="M19.86,84.67c-0.76,1.95-1.52,2.97-3.39,2.97c-1.87,0-2.8-1.02-3.47-2.88L0.29,49.52
		c-0.84-2.29,0.26-3.98,2.03-4.75c1.69-0.68,3.9-0.42,4.74,1.95l9.24,26.77l10.42-26.26c0.76-1.87,2.03-2.8,3.39-2.8
		c1.36,0,2.63,0.93,3.39,2.8l10.42,26.26l9.23-26.77c0.85-2.37,3.05-2.62,4.75-1.95c1.78,0.76,2.88,2.46,2.03,4.75L47.22,84.76
		c-0.68,1.86-1.61,2.88-3.47,2.88c-1.36,0-2.63-1.02-3.39-2.97L30.11,58.5L19.86,84.67z"/>
	<path fill="#0070A8" d="M63.94,66.04c0-11.95,7.88-22.45,21.52-22.45c13.64,0,21.52,10.5,21.52,22.45
		c0,12.03-7.88,22.45-21.52,22.45C71.81,88.49,63.94,78.07,63.94,66.04z M99.6,66.04c0-8.64-5.25-15.33-14.15-15.33
		c-8.89,0-14.15,6.69-14.15,15.33c0,8.64,5.25,15.42,14.15,15.42C94.35,81.46,99.6,74.68,99.6,66.04z"/>
	<path fill="#0070A8" d="M134.51,43.59c-0.01,0-0.02,0-0.03,0h-0.87c-0.01,0-0.02,0-0.03,0c-10.42,0-18.64,7.88-18.64,17.87v22.45
		c0,2.46,1.87,3.73,3.73,3.73c1.86,0,3.64-1.27,3.64-3.73v-22.7c0-5.67,4.58-10.5,11.27-10.5c0.01,0,0.02,0,0.03,0h0.87
		c0.01,0,0.02,0,0.03,0c6.69,0,11.27,4.83,11.27,10.5v22.7c0,2.46,1.78,3.73,3.64,3.73s3.73-1.27,3.73-3.73V61.46
		C153.15,51.47,144.93,43.59,134.51,43.59z"/>
	<path fill="#0070A8" d="M202.43,64.18c0,0.91,0,18.89,0,18.89c0,11.94-7.62,22.28-21.26,22.28c-7.12,0-12.62-1.87-16.6-6.44
		c-1.61-1.87-1.02-3.9,0.42-5.08c1.36-1.27,3.47-1.36,5.17,0.34c2.12,2.12,5.25,4.24,11.01,4.24c8.73,0,13.89-6.52,13.89-14.91
		v-0.25c-3.47,3.3-8.13,5.25-13.89,5.25c-13.22,0-20.84-10.42-20.84-22.45c0-11.95,7.62-22.45,20.84-22.45
		C194.88,43.59,202.43,54.35,202.43,64.18z M195.06,66.04c0-8.64-4.32-15.33-13.21-15.33c-8.89,0-14.15,6.69-14.15,15.33
		c0,8.64,5.25,15.42,14.15,15.42C190.74,81.46,195.06,74.68,195.06,66.04z"/>
	<path fill="#FF672B" d="M320.42,19.85c-24.91-26.1-66.29-26.47-91.67-1.11c-20.58,20.57-24.22,51.64-10.93,75.93
		c0.25,0.46,0.45,0.95,0.59,1.45c0.27,0.96,0.29,1.98,0.16,2.97l-1.99,15.07c0,4.01,3.25,7.26,7.26,7.26l15.42-2.01
		c1.4-0.18,2.82,0.08,4.06,0.76l0.03,0.02c24.05,13.13,54.75,9.71,75.33-10.28C343.73,85.58,344.54,45.11,320.42,19.85z"/>
	<path fill="#FFFFFF" d="M286,44.58c-4.98,0-8.84,1.02-11.81,3.13c-2.95,2.1-4.44,5.45-4.5,5.58c-1.06,2.32-0.41,4.4,1.69,5.43
		c0.62,0.3,1.24,0.46,1.84,0.46c1.49,0,2.78-0.92,3.64-2.59c0.01-0.01,0.74-1.5,1.84-2.6c1.67-1.68,3.93-2.36,7.8-2.36
		c5.13,0,8.58,2.14,8.58,5.32v2.54c0,1.45-0.94,2.38-2.51,2.48l-11.94,1.09c-2.93,0.26-12.51,1.88-12.51,11.96
		c0,7.53,5.91,12.79,14.38,12.79c5.47,0,10.01-1.51,12.65-4.16c0.3,2.06,1.69,3.33,3.76,3.37l0.1,0c2.35,0,3.87-1.63,3.97-4.26
		V59.79C302.97,49.84,297.1,44.58,286,44.58z M295.08,70.51c0,5.28-5.33,9.91-11.42,9.91c-5.65,0-7.66-2.79-7.66-5.41
		c0-2.14,1.55-4.82,5.91-5.32l13.16-1.59V70.51z"/>
	<path fill="#FFFFFF" d="M313.98,44.58l-0.1,0c-2.18,0-3.6,1.51-3.69,3.95c-0.02,0.47,0,32.56,0.01,35.39
		c0.02,2.37,1.38,3.87,3.56,3.92l0.1,0c2.18,0,3.6-1.51,3.69-3.95c0.02-0.47,0.01-32.56-0.01-35.39
		C317.53,46.13,316.16,44.63,313.98,44.58z"/>
	<path fill="#FFFFFF" d="M313.74,40.1l0.11,0c2.6,0,4.29-1.81,4.4-4.78c-0.02-2.83-1.65-4.62-4.25-4.67l-0.11,0
		c-2.6,0-4.29,1.81-4.4,4.78C309.51,38.25,311.14,40.04,313.74,40.1z"/>
	<path fill="#FFFFFF" d="M243.76,43.59c-0.01,0-0.02,0-0.03,0h-0.87c-0.01,0-0.02,0-0.03,0c-10.42,0-18.64,7.88-18.64,17.87v22.45
		c0,2.46,1.87,3.73,3.73,3.73c1.86,0,3.64-1.27,3.64-3.73v-22.7c0-5.67,4.58-10.5,11.27-10.5c0.01,0,0.02,0,0.03,0h0.87
		c0.01,0,0.02,0,0.03,0c6.69,0,11.27,4.83,11.27,10.5v22.7c0,2.46,1.78,3.73,3.64,3.73c1.86,0,3.73-1.27,3.73-3.73V61.46
		C262.4,51.47,254.18,43.59,243.76,43.59z"/>
</g>
</svg>
